<svg width="221" height="221" viewBox="0 0 221 221" fill="none" xmlns="http://www.w3.org/2000/svg">
<g opacity="0.42" clip-path="url(#clip0_31154_5284)">
<path d="M90.7504 128.807C103.809 129.957 116.391 124.452 124.406 114.079C132.42 103.706 134.573 90.1425 130.164 77.7972L119.543 48.0473C117.781 43.1117 114.545 38.962 110.188 36.0489C105.831 33.1351 100.76 31.7322 95.5232 31.9891C90.2874 32.2501 85.3796 34.1484 81.33 37.4786C77.2805 40.8087 74.4719 45.2598 73.2064 50.3484L73.1228 50.6901C69.855 63.4298 61.3778 74.3226 49.819 80.6167C46.8376 82.2407 44.2777 84.4238 42.2462 87.053C41.1417 88.4824 40.1929 90.0458 39.4167 91.7214C37.2152 96.4794 36.6167 101.707 37.6855 106.841C38.7549 111.973 41.392 116.527 45.3114 120.01C49.2307 123.493 54.0617 125.576 59.284 126.037L90.7504 128.807Z" fill="#FFC107"/>
<path d="M137.807 67.9623C136.247 73.1665 137.126 78.714 140.28 83.5829C143.282 88.2168 148.026 91.6932 153.642 93.3717C159.255 95.0471 165.128 94.7437 170.181 92.518C175.489 90.1793 179.268 86.0252 180.82 80.8255C183.949 70.3705 176.846 58.9753 164.981 55.4208C155.53 52.6019 145.873 55.5984 140.758 62.2189C139.451 63.9094 138.441 65.8363 137.807 67.9623Z" fill="#FFC107"/>
<path d="M134.07 106.876C126.284 116.953 129.29 132.368 140.77 141.238C152.253 150.111 167.929 149.131 175.715 139.054C183.5 128.979 180.492 113.564 169.009 104.691C157.529 95.8204 141.855 96.8009 134.07 106.876Z" fill="#FFC107"/>
<path d="M104.57 134.482L104.569 134.483C102.857 135.636 101.389 137.027 100.173 138.602C94.4947 145.95 94.3098 157.245 100.418 166.329C103.934 171.558 109.017 175.321 114.73 176.922C120.71 178.599 126.657 177.738 131.475 174.497C136.295 171.255 139.334 166.072 140.037 159.901C140.708 154.006 139.14 147.88 135.623 142.652C128.205 131.622 114.274 127.957 104.57 134.482Z" fill="#FFC107"/>
<path d="M77.2638 174.845L77.2689 174.844C87.7712 171.861 93.5764 159.75 90.2081 147.841C86.8317 135.936 75.5422 128.666 65.0441 131.636C61.2142 132.718 58.008 135.015 55.6435 138.075C51.5225 143.409 49.9573 151.061 52.0971 158.638C55.4743 170.543 66.7631 177.813 77.2638 174.845Z" fill="#FFC107"/>
</g>
<defs>
<clipPath id="clip0_31154_5284">
<rect width="157.222" height="157.222" fill="white" transform="translate(220.969 96.5576) rotate(127.692)"/>
</clipPath>
</defs>
</svg>
