<svg width="75" height="75" viewBox="0 0 75 75" fill="none" xmlns="http://www.w3.org/2000/svg">
<g opacity="0.42" clip-path="url(#clip0_31154_5308)">
<path d="M42.7632 29.3758C38.1285 30.0072 34.1854 32.9165 32.216 37.1588C30.2465 41.401 30.569 46.2905 33.0781 50.2379L39.1235 59.7506C40.1263 61.3289 41.5801 62.5172 43.3261 63.1867C45.0726 63.8563 46.9476 63.944 48.7496 63.441C50.5508 62.9366 52.1086 61.8884 53.2546 60.4098C54.4006 58.9313 55.0263 57.1606 55.0647 55.2901L55.0668 55.1646C55.1976 50.4736 57.287 46.0139 60.8117 42.9108C61.7209 42.1103 62.4392 41.1485 62.9384 40.0732C63.2098 39.4886 63.4164 38.8696 63.5542 38.2253C63.9444 36.3958 63.7397 34.5295 62.9623 32.8275C62.1849 31.1265 60.9076 29.7502 59.2687 28.8478C57.6299 27.9455 55.7843 27.6021 53.9308 27.8542L42.7632 29.3758Z" fill="#54ADFF"/>
<path d="M31.1946 54.2634C31.3262 52.3294 30.5824 50.4685 29.1002 49.0235C27.6898 47.6482 25.7643 46.8133 23.6779 46.6728C21.5924 46.5332 19.5727 47.1027 17.9902 48.2763C16.3283 49.5092 15.3412 51.2532 15.2121 53.185C14.9492 57.07 18.3206 60.474 22.7298 60.7736C26.2411 61.008 29.3645 59.2026 30.6215 56.4949C30.9425 55.8036 31.1417 55.0533 31.1946 54.2634Z" fill="#54ADFF"/>
<path d="M29.4215 40.4281C31.3347 36.307 29.0714 31.1807 24.3761 29.001C19.6797 26.8207 14.3025 28.3998 12.3893 32.521C10.4763 36.6417 12.7406 41.7679 17.437 43.9481C22.1322 46.1279 27.5085 44.5488 29.4215 40.4281Z" fill="#54ADFF"/>
<path d="M37.505 28.4924L37.5052 28.492C38.0099 27.9557 38.4107 27.3557 38.7097 26.7117C40.1049 23.7062 39.2772 19.7617 36.4342 17.0834C34.7979 15.5414 32.732 14.6338 30.6177 14.528C28.4043 14.4168 26.4033 15.186 24.9825 16.6942C23.5617 18.2028 22.9134 20.2465 23.1564 22.4492C23.3884 24.5534 24.4179 26.5611 26.0546 28.1024C29.5071 31.3543 34.6437 31.5292 37.505 28.4924Z" fill="#54ADFF"/>
<path d="M43.8194 12.2918L43.8177 12.2924C40.3989 14.1598 39.3356 18.8326 41.4482 22.7101C43.5634 26.586 48.0658 28.2237 51.4841 26.3614C52.7313 25.6824 53.6654 24.6297 54.2465 23.3781C55.2591 21.1968 55.1993 18.4106 53.8563 15.943C51.7409 12.0675 47.2387 10.4294 43.8194 12.2918Z" fill="#54ADFF"/>
</g>
<defs>
<clipPath id="clip0_31154_5308">
<rect width="56.0976" height="56.0976" fill="white" transform="translate(0 50.8818) rotate(-65.0971)"/>
</clipPath>
</defs>
</svg>
