<svg width="79" height="79" viewBox="0 0 79 79" fill="none" xmlns="http://www.w3.org/2000/svg">
<g opacity="0.42" clip-path="url(#clip0_31154_5302)">
<path d="M34.9785 30.5194C33.2707 34.874 33.8891 39.735 36.6332 43.5225C39.3774 47.3099 43.804 49.4117 48.4737 49.1449L59.7265 48.5031C61.5934 48.3967 63.3396 47.7066 64.7752 46.5083C66.2112 45.3098 67.2017 43.7153 67.6409 41.8967C68.0784 40.0781 67.9225 38.207 67.1901 36.4856C66.4576 34.7643 65.2166 33.3549 63.602 32.4096L63.4934 32.3466C59.4613 29.9459 56.5855 25.9477 55.5942 21.3575C55.3383 20.1735 54.8486 19.0775 54.153 18.1175C53.7749 17.5955 53.3352 17.1134 52.8397 16.679C51.4325 15.4466 49.7031 14.7156 47.8381 14.5648C45.9739 14.4145 44.1496 14.8589 42.5628 15.85C40.9761 16.8412 39.7766 18.2852 39.0934 20.0266L34.9785 30.5194Z" fill="#FFC107"/>
<path d="M51.0717 52.7509C49.4472 51.6934 47.4598 51.4357 45.4756 52.0256C43.5873 52.5867 41.9197 53.861 40.78 55.6144C39.6416 57.3673 39.1544 59.4084 39.4078 61.3622C39.6743 63.4143 40.7159 65.1262 42.3397 66.1805C45.6038 68.3038 50.2194 67.0192 52.6302 63.3153C54.5464 60.3636 54.4924 56.7564 52.7409 54.339C52.2937 53.7218 51.7356 53.1821 51.0717 52.7509Z" fill="#FFC107"/>
<path d="M38.1278 47.5555C35.462 43.8762 29.8828 43.3537 25.6909 46.3909C21.498 49.4289 20.2558 54.8938 22.9217 58.5731C25.5872 62.2521 31.1669 62.7736 35.3598 59.7357C39.5517 56.6984 40.7934 51.2344 38.1278 47.5555Z" fill="#FFC107"/>
<path d="M31.645 34.6788L31.6448 34.6785C31.4225 33.9764 31.094 33.3339 30.6774 32.759C28.7332 30.0757 24.8856 28.8758 21.1612 30.0527C19.0172 30.7299 17.2177 32.0913 16.0947 33.8859C14.9188 35.7643 14.6151 37.8865 15.2395 39.8621C15.8641 41.8381 17.3327 43.4003 19.3744 44.2618C21.3248 45.0849 23.5797 45.1646 25.7232 44.4867C30.2455 43.0573 32.902 38.6574 31.645 34.6788Z" fill="#FFC107"/>
<path d="M20.5782 21.2697L20.578 21.2715C20.5421 25.1668 24.1039 28.3729 28.5193 28.4183C32.9346 28.4606 36.5592 25.3276 36.5993 21.4351C36.6143 20.0151 36.1505 18.6864 35.3409 17.569C33.9299 15.6215 31.4678 14.3156 28.6586 14.2856C24.2436 14.2436 20.6187 17.3763 20.5782 21.2697Z" fill="#FFC107"/>
</g>
<defs>
<clipPath id="clip0_31154_5302">
<rect width="56.0976" height="56.0976" fill="white" transform="translate(32.9141 78.3408) rotate(-125.925)"/>
</clipPath>
</defs>
</svg>
