<svg width="66" height="66" viewBox="0 0 66 66" fill="none" xmlns="http://www.w3.org/2000/svg">
<g opacity="0.42" clip-path="url(#clip0_31154_5290)">
<path d="M42.4467 35.7875C40.3286 31.3632 36.1585 28.3607 31.2912 27.7563C26.424 27.1519 21.6461 29.0433 18.5108 32.8152L10.9546 41.904C9.70093 43.4117 8.98129 45.2445 8.87337 47.2025C8.76541 49.1609 9.27976 51.061 10.3604 52.6985C11.4421 54.3348 12.9885 55.5535 14.8325 56.2229C16.6764 56.8924 18.6449 56.9487 20.5247 56.3866L20.6506 56.3484C25.3757 54.9733 30.4986 55.6275 34.7278 58.1503C35.8189 58.8009 37.0096 59.2093 38.2434 59.3625C38.9141 59.4458 39.5984 59.4534 40.2858 59.3841C42.2374 59.1864 44.035 58.383 45.4845 57.0606C46.9331 55.7385 47.8971 54.0216 48.2719 52.0958C48.6467 50.17 48.3971 48.2174 47.5504 46.4479L42.4467 35.7875Z" fill="#FFC107"/>
<path d="M13.8873 32.2278C15.8603 31.7383 17.4793 30.3985 18.4461 28.4548C19.3664 26.6054 19.5818 24.4152 19.0523 22.2871C18.5223 20.1603 17.3054 18.3268 15.6259 17.1237C13.8615 15.8604 11.8037 15.4348 9.83369 15.926C5.87083 16.9105 3.55473 21.3689 4.67091 25.8669C5.56407 29.4476 8.36898 31.9862 11.4756 32.3719C12.2689 32.4704 13.0818 32.4285 13.8873 32.2278Z" fill="#FFC107"/>
<path d="M27.1301 26.0163C31.8584 26.6034 36.2495 22.6985 36.9184 17.3114C37.5875 11.923 34.285 7.06178 29.5567 6.47464C24.8288 5.88755 20.4381 9.79348 19.769 15.1818C19.1 20.5689 22.4022 25.4292 27.1301 26.0163Z" fill="#FFC107"/>
<path d="M41.6414 30.2559L41.6419 30.256C42.3392 30.5877 43.0669 30.7952 43.8058 30.8869C47.2541 31.3151 50.9262 29.2226 52.6875 25.5248C53.7017 23.3962 53.9446 21.0425 53.3716 18.8977C52.7721 16.6524 51.3618 14.9016 49.4001 13.9674C47.438 13.0331 45.1896 13.042 43.0686 13.9916C41.0425 14.8987 39.3686 16.5709 38.3553 18.6996C36.217 23.1901 37.6912 28.3742 41.6414 30.2559Z" fill="#FFC107"/>
<path d="M59.8411 31.3579L59.84 31.3564C56.8784 28.5428 51.8721 28.9812 48.6792 32.3349C45.4888 35.6907 45.2991 40.7112 48.2556 43.526C49.3338 44.5531 50.6845 45.1478 52.1205 45.3261C54.6232 45.6368 57.3855 44.6828 59.4178 42.5499C62.6078 39.1941 62.798 34.1736 59.8411 31.3579Z" fill="#FFC107"/>
</g>
<defs>
<clipPath id="clip0_31154_5290">
<rect width="58.827" height="58.827" fill="white" transform="translate(7.25) rotate(7.07858)"/>
</clipPath>
</defs>
</svg>
