<svg width="222" height="222" viewBox="0 0 222 222" fill="none" xmlns="http://www.w3.org/2000/svg">
<g opacity="0.42" clip-path="url(#clip0_31154_5278)">
<path d="M134.058 97.1755C121.508 93.3876 108.068 96.2121 98.1072 104.733C88.1463 113.254 83.274 126.094 85.0731 139.079L89.4061 170.369C90.1247 175.56 92.4468 180.283 96.1181 184.023C99.7903 187.764 104.468 190.171 109.648 190.987C114.827 191.799 120.019 190.941 124.662 188.506C129.305 186.072 132.962 182.287 135.239 177.563L135.39 177.246C141.187 165.44 151.706 156.504 164.306 152.698C167.555 151.716 170.507 150.101 173.032 147.941C174.404 146.767 175.652 145.43 176.753 143.947C179.879 139.738 181.53 134.742 181.531 129.498C181.53 124.256 179.877 119.26 176.75 115.051C173.623 110.842 169.318 107.818 164.299 106.302L134.058 97.1755Z" fill="#54ADFF"/>
<path d="M75.5841 147.149C78.1717 142.372 78.4429 136.762 76.3471 131.352C74.3534 126.204 70.4172 121.833 65.262 119.045C60.1082 116.26 54.2963 115.36 48.8955 116.509C43.223 117.717 38.6759 121.013 36.097 125.787C30.9023 135.385 35.5327 147.988 46.4237 153.887C55.102 158.574 65.1667 157.609 71.5245 152.17C73.1479 150.782 74.5294 149.101 75.5841 147.149Z" fill="#54ADFF"/>
<path d="M87.1778 109.814C96.8543 101.536 97.0545 85.8325 87.6237 74.8078C78.1906 63.7805 62.6438 61.5439 52.9673 69.8215C43.2917 78.0983 43.094 93.8031 52.5271 104.83C61.9579 115.855 77.5022 118.091 87.1778 109.814Z" fill="#54ADFF"/>
<path d="M121.685 88.8016L121.686 88.8008C123.597 88.0215 125.317 86.9586 126.83 85.665C133.887 79.6284 136.37 68.609 132.242 58.4706C129.866 52.6339 125.657 47.9144 120.39 45.1823C114.877 42.3213 108.88 41.9519 103.502 44.142C98.1231 46.333 94.0905 50.7881 92.1447 56.6862C90.2858 62.3205 90.572 68.6375 92.9495 74.4725C97.9634 86.7831 110.854 93.211 121.685 88.8016Z" fill="#54ADFF"/>
<path d="M156.646 54.854L156.641 54.8536C145.751 55.6326 137.598 66.3064 138.468 78.6513C139.346 90.9952 148.917 100.413 159.8 99.6467C163.77 99.3682 167.377 97.7725 170.316 95.2587C175.438 90.8774 178.53 83.7049 177.98 75.8505C177.101 63.5074 167.531 54.0883 156.646 54.854Z" fill="#54ADFF"/>
</g>
<defs>
<clipPath id="clip0_31154_5278">
<rect width="157.222" height="157.222" fill="white" transform="translate(0 102.2) rotate(-40.5446)"/>
</clipPath>
</defs>
</svg>
