<svg width="83" height="83" viewBox="0 0 83 83" fill="none" xmlns="http://www.w3.org/2000/svg">
<g opacity="0.42" clip-path="url(#clip0_31154_5296)">
<path d="M36.6813 32.0044C34.8904 36.5709 35.5388 41.6684 38.4165 45.6401C41.2942 49.6118 45.9361 51.8158 50.833 51.5361L62.6334 50.863C64.5911 50.7515 66.4222 50.0278 67.9277 48.7712C69.4336 47.5144 70.4723 45.8423 70.9328 43.9352C71.3916 42.0281 71.2281 40.066 70.46 38.2609C69.692 36.4558 68.3905 34.9778 66.6974 33.9865L66.5836 33.9205C62.3552 31.4029 59.3396 27.2103 58.3 22.3967C58.0316 21.1551 57.5181 20.0057 56.7887 18.999C56.3921 18.4517 55.931 17.9461 55.4115 17.4906C53.9358 16.1982 52.1222 15.4316 50.1665 15.2735C48.2116 15.1158 46.2985 15.5819 44.6346 16.6213C42.9706 17.6606 41.7128 19.175 40.9963 21.001L36.6813 32.0044Z" fill="#FFC107"/>
<path d="M53.5562 55.3178C51.8526 54.2089 49.7685 53.9387 47.6877 54.5573C45.7076 55.1457 43.9589 56.482 42.7637 58.3206C41.5699 60.1588 41.059 62.2993 41.3247 64.3481C41.6042 66.5 42.6965 68.2952 44.3993 69.4009C47.8222 71.6275 52.6624 70.2804 55.1905 66.3963C57.1999 63.3009 57.1433 59.5182 55.3065 56.9832C54.8375 56.3359 54.2524 55.77 53.5562 55.3178Z" fill="#FFC107"/>
<path d="M39.9821 49.8693C37.1866 46.011 31.3359 45.4632 26.94 48.6482C22.5431 51.834 21.2405 57.5647 24.0361 61.423C26.8313 65.281 32.6825 65.828 37.0794 62.6422C41.4752 59.4572 42.7774 53.7273 39.9821 49.8693Z" fill="#FFC107"/>
<path d="M33.1857 36.3661L33.1854 36.3658C32.9524 35.6295 32.6078 34.9558 32.1709 34.3529C30.1322 31.5391 26.0974 30.2808 22.1918 31.5149C19.9435 32.225 18.0565 33.6527 16.8788 35.5346C15.6457 37.5044 15.3272 39.7299 15.9819 41.8017C16.637 43.8738 18.177 45.512 20.318 46.4154C22.3633 47.2785 24.7279 47.3621 26.9757 46.6513C31.7181 45.1523 34.5038 40.5383 33.1857 36.3661Z" fill="#FFC107"/>
<path d="M21.5786 22.3046L21.5783 22.3065C21.5406 26.3913 25.2758 29.7534 29.906 29.801C34.5362 29.8454 38.3371 26.5599 38.3791 22.478C38.3949 20.989 37.9085 19.5956 37.0595 18.4238C35.5798 16.3817 32.998 15.0122 30.0521 14.9807C25.4222 14.9367 21.621 18.2218 21.5786 22.3046Z" fill="#FFC107"/>
</g>
<defs>
<clipPath id="clip0_31154_5296">
<rect width="58.827" height="58.827" fill="white" transform="translate(34.5156 82.1526) rotate(-125.925)"/>
</clipPath>
</defs>
</svg>
