<svg xmlns="http://www.w3.org/2000/svg" width="116" height="20" fill="none"><path fill="#303030" d="M2.531 18.348c-1.31-.178-2.106-.87-2.388-2.076l.022-.245.2-.603c.075-.253.157-.498.246-.736a1.66 1.66 0 0 1 .447-.67c.044-.134.126-.335.245-.603.134-.282.35-.7.648-1.25.238-.431.424-.774.558-1.026.148-.253.268-.447.357-.58a3.273 3.273 0 0 0-.625-.782c-.238-.447-.447-.87-.625-1.272a11.06 11.06 0 0 1-.38-1.117 4.79 4.79 0 0 0-.178-1.093l-.134-.58a2.672 2.672 0 0 1-.067-.603A1.741 1.741 0 0 1 .7 4.71l.044-.268c.075-.119.09-.275.045-.469a4.685 4.685 0 0 0-.134-.625c-.045-.193-.09-.394-.134-.602A3.178 3.178 0 0 1 .5 2.098a1.72 1.72 0 0 1 .156-.602c.104-.194.275-.358.513-.491l.224-.157.223.134c.163.104.32.194.469.268l.446.223c.179.09.357.186.536.29.178.09.372.194.58.313l.223.156-.022.246a.367.367 0 0 0 .09.223l.245.067.022.312v.268c0 .134.008.23.022.29a.58.58 0 0 0 .09.157l.111.29c0 .268.023.506.067.714.045.209.097.417.157.625.074.209.133.424.178.647.045.209.052.44.022.692a1.05 1.05 0 0 0 .268-.2l.09-.09.133-.089 1.563-2.12-.045-.268.558-.536c.15-.12.29-.238.424-.357.134-.134.246-.283.335-.447l.134-.2c.67-.893 1.533-1.444 2.59-1.652l.379-.09.112.357c.074.209.215.395.424.559.223.148.461.297.714.446l.245.156c.09.179.134.313.134.402 0 .09-.007.164-.022.223l.112.29c-.164.432-.342.744-.536.938-.193.178-.394.35-.603.513a6.03 6.03 0 0 0-.446.402 1.516 1.516 0 0 0-.313.447l-.178.223c-.372.193-.61.476-.714.848l-.09.312h-.335c-.014 0-.052.038-.111.112-.06.06-.149.216-.268.469-.134.178-.23.297-.29.357l-.112.112c-.03.074-.06.14-.09.2a3.14 3.14 0 0 1-.066.224l-.134.178c-.134.12-.23.238-.29.357-.06.105-.127.231-.201.38-.06.134-.127.275-.201.424a1.841 1.841 0 0 1-.312.402l.044.245-.178.157a1.448 1.448 0 0 0-.313.401c-.09.15-.178.305-.268.469-.089.179-.186.357-.29.536a2.078 2.078 0 0 1-.402.49c-.104.269-.2.477-.29.626a2.477 2.477 0 0 1-.402.536c-.178.714-.602 1.48-1.272 2.299a1.26 1.26 0 0 1-.156.49c-.075.15-.156.29-.246.425-.03.06-.067.126-.111.2l-.067.135-.067.245c-.09.164-.186.298-.29.402-.09.104-.18.2-.268.29a.892.892 0 0 0-.134.112.732.732 0 0 1-.09.111l-.379.134ZM47.684 4.91c.03.328.082.61.156.849.074.238.156.469.245.692.075.208.142.417.201.625.075.193.127.432.157.714-.12.387-.209.744-.268 1.072-.045.327-.097.67-.156 1.026-.239.521-.47.983-.692 1.384-.224.402-.402.752-.536 1.05a1.259 1.259 0 0 0-.201.267c-.045.09-.097.186-.156.29-.03.045-.067.112-.112.201a.75.75 0 0 1-.112.179l-.446-.156-.09.558-.312.09-.223.267c-.283.491-.58.908-.893 1.25a6.32 6.32 0 0 1-1.071.893 9.323 9.323 0 0 1-1.34.714 85.15 85.15 0 0 1-1.674.737 5.803 5.803 0 0 0-.67-.045l-.513-.045c-.282 0-.632-.022-1.049-.067a.424.424 0 0 0-.2-.245.555.555 0 0 0-.246-.067 1.304 1.304 0 0 1-.58-.514 18.472 18.472 0 0 1-.358-.758 6.222 6.222 0 0 0-.223-.447 6.655 6.655 0 0 0-.245-.446l.379-.112-.491-.536a.4.4 0 0 0-.112-.111.886.886 0 0 1-.111-.134l-.023-.357a65.098 65.098 0 0 1-.067-2.813c.015-.863.134-1.63.358-2.299v-.245c.044-.328.089-.596.134-.804.044-.223.081-.432.111-.625.045-.327.112-.632.201-.915.208-.045.365-.127.469-.246.104-.134.193-.253.268-.357.208-.015.35.015.424.09.074.074.149.193.223.357a8.8 8.8 0 0 0 .268.446c.119.164.29.29.513.38.03.119.067.245.112.379.06.119.119.253.178.402.12.253.224.52.313.803.104.268.164.529.178.782-.148.282-.267.61-.357.982a9.532 9.532 0 0 0-.156 1.138c-.015.372-.007.737.022 1.094.045.342.112.632.201.87l.134.29.38-.044c.446-.12.848-.246 1.205-.38.372-.148.714-.32 1.027-.513.312-.193.61-.417.893-.67.282-.267.58-.572.893-.915.312-.342.58-.729.803-1.16.238-.447.432-.908.58-1.384.164-.477.283-.945.358-1.407a11.9 11.9 0 0 0 .178-1.339.522.522 0 0 0 .38-.536l-.045-.245c-.06-.09-.06-.194 0-.313.09-.282.298-.498.625-.647.238.149.446.313.625.491.193.179.372.357.536.536ZM52.393 15.29c-.164.596-.313 1.05-.447 1.362-.119.297-.305.61-.558.937-.193-.03-.327-.007-.402.067a1.604 1.604 0 0 1-.245.201c-.134.03-.23.03-.29 0a.595.595 0 0 1-.157-.111 4.575 4.575 0 0 0-.178-.112.691.691 0 0 0-.29-.045c-.03-.119-.067-.23-.112-.334-.03-.105-.127-.142-.29-.112a.686.686 0 0 0 .022-.29.794.794 0 0 0-.067-.224 4.381 4.381 0 0 0-.044-.2.577.577 0 0 1 .022-.268c-.075 0-.134-.052-.179-.157a3.045 3.045 0 0 0-.156-.312c.045-.268.09-.52.134-.759.045-.238.097-.461.156-.67.075-.208.134-.416.179-.624a1.096 1.096 0 0 0-.067-.648c.06.045.104.037.134-.022.03-.075.052-.164.067-.268.015-.12.022-.23.022-.335 0-.119-.007-.216-.022-.29.148-.387.268-.781.357-1.183.104-.417.193-.826.268-1.228.089-.402.178-.796.268-1.183a5.66 5.66 0 0 1 .357-1.071.99.99 0 0 1 .535.067c.209.06.335.141.38.245.387-.297.73-.654 1.027-1.071.297-.432.602-.848.915-1.25a7.023 7.023 0 0 1 1.027-1.072c.387-.312.87-.498 1.45-.558.298.224.625.454.983.692.372.224.677.521.915.893.119.06.216.127.29.201.09.06.194.127.313.201v.268c.178.164.32.357.424.58.119.209.223.44.312.692.09.238.179.484.268.737.09.238.194.469.313.692a.547.547 0 0 0-.045.2c0 .045.007.097.022.157.03.06.052.119.067.178a.672.672 0 0 1 0 .246c-.044.655-.26 1.183-.647 1.585a4.693 4.693 0 0 1-1.362 1.004c-.535.253-1.108.469-1.718.648-.61.178-1.161.372-1.652.58 0 .06.022.09.067.09.06 0 .081.037.067.11.357.224.64.403.848.537.208.133.402.245.58.334.194.09.395.171.603.246.223.06.528.134.915.223a19 19 0 0 1 .893.223c.223.045.424.09.603.134l.535.09c.194.014.462.037.804.066.134.135.245.298.335.492.104.178.17.364.2.558.03.178.038.357.023.535a.697.697 0 0 1-.156.402c.014.045.044.067.089.067a.362.362 0 0 1 .178 0 .796.796 0 0 0-.223.223l-.178.268a.974.974 0 0 1-.201.223.505.505 0 0 1-.313.134c-.461.179-1.041.186-1.74.023-.7-.15-1.586-.432-2.657-.849a37.527 37.527 0 0 1-1.317-.535 14.7 14.7 0 0 1-.87-.469 7.947 7.947 0 0 1-.67-.513 64.335 64.335 0 0 0-.714-.648Zm3.191-7.656c-.163.238-.35.454-.558.647-.193.194-.386.395-.58.603a3.889 3.889 0 0 0-.49.67c-.15.238-.254.52-.313.848a6.44 6.44 0 0 0 1.629-.424c.566-.238 1.101-.462 1.607-.67-.06-.461-.223-.833-.49-1.116-.254-.283-.522-.469-.805-.558ZM71.94 11.785c.015-.064.047-.088.096-.072.064 0 .12-.008.168-.024a.882.882 0 0 1-.24-.506 1.03 1.03 0 0 0-.241-.553c.032-.08.056-.16.072-.24.032-.081.104-.113.216-.097a2.88 2.88 0 0 1 .025-.987c.064-.305.16-.593.288-.866.145-.273.305-.538.482-.794.192-.273.377-.546.553-.818.145-.033.233-.016.265.048.032.048.088.032.168-.048.257-.177.433-.37.53-.578.096-.225.144-.465.144-.722.145-.417.305-.826.481-1.227a7.98 7.98 0 0 1 .65-1.155 5.51 5.51 0 0 1 .77-.915c.273-.273.57-.481.89-.626.225-.192.506-.369.843-.529.353-.16.722-.28 1.107-.361a5.24 5.24 0 0 1 1.227-.144c.417-.016.803.024 1.155.12.08.032.129.016.145-.048.016-.08.056-.12.12-.12a9.807 9.807 0 0 1 2.142.48 4.809 4.809 0 0 1 1.636.94c.305.48.594 1.002.867 1.564.273.545.481 1.123.625 1.732.16.594.233 1.212.217 1.853a5.527 5.527 0 0 1-.41 1.926 6.58 6.58 0 0 1-2.045 1.708c-.802.417-1.668.77-2.599 1.059-.914.273-1.869.497-2.864.674-.978.176-1.933.369-2.863.577.016.434.016.899 0 1.396-.016.482-.072.97-.169 1.468-.08.481-.208.955-.385 1.42-.16.465-.385.898-.674 1.3a3.716 3.716 0 0 0-1.01.096c-.337.08-.642.16-.915.24l-.385-.24a1.064 1.064 0 0 0-.433-.12c.048-.193 0-.394-.144-.602a7.914 7.914 0 0 0-.41-.602 2.157 2.157 0 0 1-.264-.601c-.032-.209.064-.393.289-.554-.129-.112-.193-.289-.193-.53a.327.327 0 0 0 .24.097c-.031-.289 0-.634.097-1.035.112-.401.2-.794.265-1.18.08-.4.096-.761.048-1.082-.048-.337-.24-.578-.578-.722Zm6.256-5.631c-.064.176-.12.337-.168.481a2.375 2.375 0 0 1-.12.361 3.286 3.286 0 0 1-.169.337c-.048.112-.104.24-.169.385a.365.365 0 0 0 .193.217c.096.048.16.12.193.216.224-.112.449-.192.673-.24.225-.065.45-.113.674-.145.225-.032.45-.072.674-.12a3.28 3.28 0 0 0 .698-.24c.24-.113.49-.201.746-.266.273-.08.537-.16.794-.24.257-.08.505-.169.746-.265.24-.112.45-.257.626-.433-.225-.209-.562-.393-1.01-.554a5.298 5.298 0 0 0-1.469-.288 5.173 5.173 0 0 0-1.564.096 2.867 2.867 0 0 0-1.348.698ZM100.048 5.023c.016.112.016.2 0 .264a.457.457 0 0 1-.025.145V5.6c0 .048.016.129.049.24-.337.546-.73.923-1.18 1.132a6.38 6.38 0 0 1-1.42.433c-.513.08-1.042.169-1.588.265a4.682 4.682 0 0 0-1.588.626.722.722 0 0 0-.578 0c-.16.08-.4.104-.722.072a.906.906 0 0 1-.36.216 4.363 4.363 0 0 0-.434.12.888.888 0 0 1 .072.458c0 .144.025.265.073.36.561.049 1.179.041 1.853-.023.69-.064 1.363-.104 2.021-.12.016.08.008.136-.024.168-.032.016-.04.056-.024.12.112.08.225.185.337.313l.337.337c.112.112.224.209.337.289a.776.776 0 0 0 .433.072c.064.128.104.273.12.433a.765.765 0 0 1-.048.457c-.257.177-.513.361-.77.554-.257.176-.53.337-.818.481-.273.145-.57.265-.89.361-.305.08-.65.112-1.035.096h-.193c-.032 0-.08-.024-.144-.072-.129.08-.313.105-.554.072-.224-.032-.4-.008-.53.073a1.358 1.358 0 0 0-.649-.097 2.05 2.05 0 0 1-.65-.096c-.257.337-.49.698-.698 1.083a9.487 9.487 0 0 0-.553 1.227c.545.08.995.113 1.347.097.37-.016.714-.04 1.035-.072.321-.049.65-.089.987-.12.337-.049.762-.065 1.275-.049.321-.176.698-.289 1.132-.337.449-.064.858-.16 1.227-.289.128.048.24.137.337.265.096.112.184.225.264.337.097.096.193.184.29.265a.46.46 0 0 0 .36.096.43.43 0 0 1 .12.24c.033.08.057.161.073.241.016.08.04.153.072.217.048.048.12.064.216.048-.24.53-.52.939-.842 1.227a3.192 3.192 0 0 1-1.059.626c-.4.144-.85.257-1.347.337-.482.08-1.02.176-1.613.289a.535.535 0 0 1-.36-.024 1.066 1.066 0 0 0-.338-.048c-.369.08-.81.152-1.323.216-.514.064-1.035.088-1.564.072a6.652 6.652 0 0 1-1.516-.216c-.482-.113-.875-.321-1.18-.626a.878.878 0 0 1-.264-.385c-.033-.16-.137-.28-.313-.361a6.518 6.518 0 0 0-.097-.698 78.067 78.067 0 0 1-.144-.794c-.048-.289-.088-.57-.12-.842a2.78 2.78 0 0 1 .048-.746c.048-.241.144-.458.289-.65a.706.706 0 0 0 .168-.626c.08-.016.128-.056.145-.12.015-.08.08-.113.192-.096.096-.29.2-.562.313-.819.112-.256.225-.505.337-.746.128-.24.248-.481.36-.722.13-.256.25-.537.362-.842a2.185 2.185 0 0 1-.506-.674 4.815 4.815 0 0 1-.216-.746 12.733 12.733 0 0 1-.12-.77 4.936 4.936 0 0 0-.169-.818c.16-.24.353-.433.578-.578.24-.16.497-.288.77-.385.272-.096.57-.176.89-.24.32-.065.658-.137 1.01-.217a19.546 19.546 0 0 1 1.71-.481c.513-.113 1.01-.2 1.492-.265.497-.08 1.01-.152 1.54-.217.53-.064 1.13-.16 1.805-.288.144.144.28.216.409.216.064-.144.136-.184.216-.12.096.048.137 0 .12-.144.161.272.362.505.602.697.257.177.538.33.843.458Z"/><path fill="#303030" d="M113.163 6.996a9.54 9.54 0 0 0-1.299.096 35.42 35.42 0 0 0-1.372.169c-.321.048-.634.088-.939.12a18.03 18.03 0 0 1-.794.072 11.785 11.785 0 0 1-.698 1.733c-.128.273-.248.553-.361.842-.096.273-.192.57-.289.89-.16.257-.296.498-.409.723-.096.208-.176.449-.24.722-.193.24-.337.497-.433.77a6.16 6.16 0 0 0-.217.674l-.096.288c-.097.096-.153.177-.169.24a.32.32 0 0 1-.12.145 1.348 1.348 0 0 1-.169.53c-.032.08-.056.16-.072.24a.66.66 0 0 0-.024.145c0 .16-.04.264-.12.313a.734.734 0 0 1 0 .264l-.048.241c-.048.193-.064.345-.048.457.048.064.088.12.12.169.048.048.08.112.096.192.096.064.169.105.217.12.064.049.16.105.289.169l.216.24c.08.466.008.835-.216 1.108-.241.305-.65.457-1.228.457h-.289a.584.584 0 0 1-.144-.193 16.19 16.19 0 0 1-.313-.12.485.485 0 0 1-.216-.192 19.204 19.204 0 0 1-.506-.241l-.216-.12v-.29a1.734 1.734 0 0 1-.265-.48 6.306 6.306 0 0 1-.12-.53 3.056 3.056 0 0 0-.121-.41 1.072 1.072 0 0 0-.144-.336c-.032-.93.056-1.717.265-2.358.208-.642.425-1.26.649-1.853l.385-.963c.129-.337.241-.682.337-1.035l.217-.24c.112-.257.2-.466.265-.626l.24-.53a4.1 4.1 0 0 0 .121-.312c.048-.113.088-.209.12-.29-.096 0-.185.009-.265.025-.08 0-.16.008-.24.024a7.917 7.917 0 0 0-.265.048h-.241a.84.84 0 0 1-.24-.024c-.177.08-.369.12-.578.12h-.385a.212.212 0 0 0-.096-.024.864.864 0 0 0-.385.072h-.795a.394.394 0 0 0-.12.024h-.12a2.92 2.92 0 0 1-.361-.024 1.7 1.7 0 0 1-.409-.168c-.193-.257-.321-.393-.385-.41l-.217-.288a1.273 1.273 0 0 0-.072-.265 7.411 7.411 0 0 1-.096-.313c-.064-.16-.129-.328-.193-.505a2.799 2.799 0 0 1-.072-.674.61.61 0 0 1 .096-.288c.048-.065.088-.12.12-.169l.073-.36.313.023h.673c.514 0 1.035-.016 1.565-.048.529-.048 1.075-.096 1.636-.144l.963-.097 1.034-.096c.065-.144.129-.28.193-.409l.241-.12c.288-.016.489.024.601.12.129.08.233.16.313.24l1.059-.096c.369-.048.738-.104 1.107-.168.546-.08 1.091-.152 1.636-.217a14.225 14.225 0 0 1 1.613-.096c.224 0 .441.008.65.024.208.016.401.04.577.072l.241.169c.048.096.112.184.192.265l.289.24c.193.177.385.385.578.626.192.24.264.593.216 1.059-.128.192-.224.305-.288.337l-.217.288-.241-.024a.703.703 0 0 0-.264.048 1.35 1.35 0 0 0-.241.073l-.193.096a4.679 4.679 0 0 1-.216.048h-.361a1.356 1.356 0 0 0-.265-.024Z"/><path fill="#FFC107" fill-rule="evenodd" d="M21.892 7.845c1.364.635 3.062-.111 3.786-1.664l.037-.08c.703-1.505 1.117-2.393-.223-3.018a5.509 5.509 0 0 0-1.056-.34l-.016-.017-.036.005c-1.44-.3-3.081-.077-3.65 1.144-.725 1.553-.205 3.334 1.158 3.97ZM21.6 4.65c.42-.184 1.004-.287 1.75-.138.641.128 1.162.117 1.564.045.028.373-.041.777-.221 1.164-.471 1.009-1.52 1.519-2.34 1.137-.734-.343-1.038-1.288-.753-2.208ZM18.488 7.288c-.48.49-1.096.735-1.736.69-.208-.014-.67-.244-.964-.391l-.189-.093c-.896-.417-1.077-1.159-.998-2.321.102-1.46 1.23-2.574 2.517-2.485.602.041.924.48 1.299.99l.07.096.115.153c.355.472.71.944.667 1.567a2.837 2.837 0 0 1-.781 1.794Zm-1.445-3.514c-.688-.047-1.296.614-1.356 1.474-.058.86.454 1.598 1.14 1.645.317.022.63-.108.883-.366.275-.281.443-.675.473-1.107a1.749 1.749 0 0 0-.317-1.162 1.227 1.227 0 0 0-.464-.39 1.01 1.01 0 0 0-.359-.094ZM23.02 8.915a4.503 4.503 0 0 1 2.571 3.496l.498 3.698a2.843 2.843 0 0 1-.332 1.766c-.3.542-.756.965-1.32 1.221a2.879 2.879 0 0 1-2.399-.012 2.845 2.845 0 0 1-.938-.706 5.627 5.627 0 0 0-4.054-1.908l-.04-.001a2.844 2.844 0 0 1-1.695-.602 2.843 2.843 0 0 1-1-1.493 2.843 2.843 0 0 1 .087-1.796 2.843 2.843 0 0 1 1.14-1.389l3.152-1.996a4.503 4.503 0 0 1 4.33-.278Zm1.915 6.786c-1.712-.68-4.24-1.183-4.447.733a6.727 6.727 0 0 0-3.458-1.054h-.027a1.764 1.764 0 0 1-1.644-1.298 1.762 1.762 0 0 1 .61-1.866c.403-.286 1.07-.409 2.38.153 2 .857 2.024-.357 1.428-1.072.715 0 2.214-.214 2.5-1.071a.886.886 0 0 0 .047-.424 3.42 3.42 0 0 1 2.188 2.754l.423 3.145ZM27.26 10.966a2.223 2.223 0 0 1-.588-.4c-1.004-.949-.943-2.65.135-3.79a3.048 3.048 0 0 1 1.873-.957c.48-.052.588.123.748.383.082.134.18.292.35.453.143.135.332.267.528.404.488.341 1.02.713.993 1.235a3.048 3.048 0 0 1-.85 1.924c-.888.94-2.194 1.212-3.188.748Zm1.538-4.064a1.96 1.96 0 0 0-1.2.621c-.666.705-.818 2.061-.25 2.598.567.537 1.476.348 2.142-.357.334-.353.699-1.085.722-1.526.02-.41-.112-.771-.375-1.02-.263-.248-.632-.36-1.039-.316ZM31.06 12.835c-.77-1.18-2.14-1.163-3.425-.466-1.285.698-1.664 1.798-1.05 2.931.225.413.573.723.987.916.721.337 1.644.319 2.461-.125 1.285-.698 1.64-2.123 1.026-3.256Zm-1.546 2.3c-.758.41-1.643.252-1.971-.354-.241-.444-.118-1.007.263-1.438.77-.131 1.744-.252 2.38-.21.04.049.075.101.105.157.328.606-.02 1.433-.777 1.845Z" clip-rule="evenodd"/></svg>