<svg xmlns="http://www.w3.org/2000/svg" width="222" height="199" fill="none"><g fill="#54ADFF" clip-path="url(#a)" opacity=".12"><path d="M134.058 97.176c-12.55-3.788-25.99-.964-35.95 7.557-9.962 8.521-14.834 21.361-13.035 34.346l4.333 31.29a24.067 24.067 0 0 0 6.712 13.654 24.072 24.072 0 0 0 13.53 6.964 24.08 24.08 0 0 0 15.014-2.48 24.072 24.072 0 0 0 10.577-10.944l.151-.317a47.637 47.637 0 0 1 28.916-24.548 24.102 24.102 0 0 0 8.726-4.757 24.4 24.4 0 0 0 3.721-3.993 24.074 24.074 0 0 0 4.778-14.45 24.063 24.063 0 0 0-4.781-14.446 24.073 24.073 0 0 0-12.451-8.75l-30.241-9.126ZM75.585 147.149c2.587-4.777 2.858-10.387.763-15.797-1.994-5.148-5.93-9.519-11.085-12.307-5.154-2.784-10.966-3.685-16.367-2.536-5.672 1.208-10.22 4.504-12.799 9.278-5.194 9.598-.564 22.202 10.327 28.1 8.678 4.687 18.743 3.722 25.101-1.717a17.59 17.59 0 0 0 4.06-5.021ZM87.177 109.814c9.676-8.278 9.876-23.981.446-35.006-9.433-11.027-24.98-13.264-34.657-4.986-9.675 8.277-9.873 23.981-.44 35.009 9.43 11.024 24.975 13.26 34.65 4.983ZM121.686 88.802h.001a18.839 18.839 0 0 0 5.144-3.137c7.056-6.036 9.54-17.056 5.412-27.194-2.376-5.837-6.585-10.556-11.852-13.288-5.513-2.861-11.51-3.23-16.888-1.04-5.379 2.19-9.412 6.646-11.357 12.544-1.86 5.634-1.573 11.951.805 17.786 5.013 12.31 17.904 18.739 28.735 14.33ZM156.646 54.854h-.005c-10.89.779-19.042 11.453-18.172 23.798.878 12.344 10.448 21.762 21.331 20.995 3.97-.279 7.578-1.874 10.516-4.388 5.122-4.381 8.215-11.554 7.664-19.408-.879-12.343-10.448-21.762-21.334-20.997Z"/></g><defs><clipPath id="a"><path fill="#fff" d="M0 102.2 119.473 0l102.2 119.472-119.472 102.201z"/></clipPath></defs></svg>